:SAMPLES-PER-SECOND 30
:FULLY-SPECIFIED
:DEGREES
392
root  48.9867 38.6048 13.7708 177.401 16.6346 -173.224
RightUpLeg  -12.2193 -16.4764 -2.33165
RightLeg  21.8375 0.242704 1.15302
RightFoot  -1.19439 -0.304858 3.33912
RightToes  -5.8209e-011 0 -3.6325e-017
Spine  4.69936 -2.22355 10.6618
Spine1  5.83846 -1.58869 1.87883
HEad  -12.8313 31.9853 82.2076
LeftShoulder1  9.03768 -12.4213 -49.542
LeftArm  1.93175 1.30076 -33.2431
LeftForeArm  23.2798 -20.3144 -4.17228
LeftHand  -0.244104 0.0205437 5.32207
RightShoulder  5.7259 9.00007 39.6722
RightArm  1.20006 -11.7806 27.4605
RightForeArm  13.9728 9.40064 7.96327
RightHand  -0.325901 -2.02789 -11.0379
LeftUpLeg  -6.62358 -1.70495 7.58006
LeftLeg  61.9048 2.85735 6.34435
LeftFoot  8.17326 -0.113269 0.424529
LeftToes  1.76439e-010 -1.07097e-011 2.32476e-011
393
root  49.7736 38.9699 12.8758 176.853 14.7247 -174.252
RightUpLeg  -8.79659 -16.2444 -3.88288
RightLeg  20.37 -1.63153 1.51307
RightFoot  -2.80427 -0.252764 3.13814
RightToes  -5.8209e-011 0 -3.6325e-017
Spine  5.10638 -1.29775 11.5602
Spine1  6.05266 -0.117916 -0.260812
HEad  -8.91719 33.1261 92.0994
LeftShoulder1  9.01356 -12.3818 -49.5323
LeftArm  -4.24943 3.04703 -31.3426
LeftForeArm  28.5807 -11.9727 -6.34979
LeftHand  -0.244104 0.0205437 5.32207
RightShoulder  5.71096 9.07537 39.2988
RightArm  3.02896 -10.8597 26.9097
RightForeArm  11.9429 11.1619 7.85066
RightHand  -0.343523 -1.98587 -11.5158
LeftUpLeg  -11.4484 0.498877 6.19799
LeftLeg  64.2961 2.96228 7.32763
LeftFoot  4.94809 -0.249239 1.50076
LeftToes  1.76439e-010 -1.07097e-011 2.32476e-011
394
root  50.5059 39.2423 11.9585 176.67 13.0963 -175.14
RightUpLeg  -5.62138 -15.158 -5.12485
RightLeg  18.7025 -4.33921 1.86026
RightFoot  -4.43306 -0.232925 3.3543
RightToes  -5.8209e-011 0 -3.6325e-017
Spine  5.2372 -0.485271 12.4233
Spine1  6.22803 1.1572 -2.27967
HEad  -3.87555 33.5601 100.92
LeftShoulder1  8.83445 -12.1765 -49.1822
LeftArm  -7.40622 5.96688 -28.9477
LeftForeArm  31.1975 -6.57311 -6.54731
LeftHand  -0.244104 0.0205437 5.32207
RightShoulder  5.65385 9.1422 38.638
RightArm  5.19906 -10.0053 26.5991
RightForeArm  9.4156 13.0325 7.56295
RightHand  -0.341485 -1.94716 -11.3187
LeftUpLeg  -15.7269 3.1852 4.5606
LeftLeg  63.5407 2.06595 5.19281
LeftFoot  2.2003 -0.0889814 0.633125
LeftToes  1.76439e-010 -1.07097e-011 2.32476e-011
395
root  51.175 39.4291 11.033 176.734 11.1644 -175.604
RightUpLeg  -2.70365 -13.2386 -5.73951
RightLeg  16.9679 -8.06264 2.1738
RightFoot  -5.48423 -0.219939 3.56186
RightToes  -5.8209e-011 0 -3.6325e-017
Spine  5.46273 -0.0375826 13.0662
Spine1  5.91202 1.8385 -3.44979
HEad  1.40756 32.6128 107.042
LeftShoulder1  8.56947 -11.8734 -48.6444
LeftArm  -6.91486 10.2179 -26.1777
LeftForeArm  30.5173 -4.60033 -6.30544
LeftHand  -0.244104 0.0205437 5.32207
RightShoulder  5.55532 9.16352 37.8185
RightArm  8.13417 -9.25903 26.2523
RightForeArm  5.87851 15.1879 7.08772
RightHand  -0.339645 -1.92892 -11.1982
LeftUpLeg  -19.4764 5.54859 2.84643
LeftLeg  60.2783 1.20162 2.85791
LeftFoot  0.698106 0.0622013 -0.625929
LeftToes  1.76439e-010 -1.07097e-011 2.32476e-011
396
root  51.7923 39.5703 10.0891 176.806 9.24539 -175.905
RightUpLeg  0.255375 -11.6043 -5.91984
RightLeg  14.9577 -11.2044 2.51177
RightFoot  -6.50929 -0.221011 4.21899
RightToes  -5.8209e-011 0 -3.6325e-017
Spine  5.74393 0.329748 13.2326
Spine1  5.47136 2.24651 -4.10303
HEad  5.98119 30.2477 110.171
LeftShoulder1  8.29301 -11.5511 -48.0758
LeftArm  -5.79852 15.0166 -23.0344
LeftForeArm  29.9103 -4.70945 -6.4607
LeftHand  -0.244104 0.0205437 5.32207
RightShoulder  5.47676 9.14571 37.2787
RightArm  11.3631 -8.61328 25.5085
RightForeArm  1.52249 17.6792 6.36165
RightHand  -0.354121 -1.98073 -11.8592
LeftUpLeg  -22.1885 7.83296 0.880577
LeftLeg  54.6475 1.36334 2.52247
LeftFoot  -1.20422 0.106447 -1.1115
LeftToes  1.76439e-010 -1.07097e-011 2.32476e-011
397
root  52.3637 39.643 9.13178 176.912 7.53466 -176.21
RightUpLeg  3.25859 -10.9185 -5.93054
RightLeg  12.7492 -13.1744 2.87518
RightFoot  -7.90023 -0.223693 5.6646
RightToes  -5.8209e-011 0 -3.6325e-017
Spine  5.85369 0.812337 12.9248
Spine1  5.40133 2.68225 -4.58341
HEad  9.54173 27.5818 110.618
LeftShoulder1  7.9925 -11.2364 -47.3089
LeftArm  -4.44496 19.5875 -20.0127
LeftForeArm  29.4318 -5.77578 -6.67962
LeftHand  -0.244104 0.0205437 5.32207
RightShoulder  5.43569 9.09218 37.1412
RightArm  13.3597 -7.98185 24.4986
RightForeArm  -1.82455 19.9315 5.6553
RightHand  -0.364877 -2.12633 -12.7622
LeftUpLeg  -23.7334 10.223 -1.30066
LeftLeg  46.6637 2.6874 3.4346
LeftFoot  -3.25364 0.0993882 -1.12605
LeftToes  1.76439e-010 -1.07097e-011 2.32476e-011
398
root  52.8763 39.6461 8.16818 177.053 5.88298 -176.229
RightUpLeg  6.06205 -10.4965 -5.43319
RightLeg  10.7435 -15.1657 3.04327
RightFoot  -8.94233 -0.197783 6.4826
RightToes  -5.8209e-011 0 -3.6325e-017
Spine  5.90213 1.31887 12.6398
Spine1  5.5861 3.12928 -4.87726
HEad  12.0878 25.9562 107.987
LeftShoulder1  7.64909 -10.9469 -46.1545
LeftArm  -3.5811 23.8005 -17.6301
LeftForeArm  28.4768 -7.13726 -6.68718
LeftHand  -0.244104 0.0205437 5.32207
RightShoulder  5.36907 8.97739 37.008
RightArm  13.4177 -7.49006 23.7994
RightForeArm  -3.03208 21.437 5.27633
RightHand  -0.358557 -2.22478 -12.9118
LeftUpLeg  -24.0353 12.9612 -3.37862
LeftLeg  36.4274 4.2824 3.75336
LeftFoot  -4.17129 0.0805437 -0.885266
LeftToes  1.76439e-010 -1.07097e-011 2.32476e-011
